<svg width="2365" height="500" viewBox="0 0 2365 500" fill="none" xmlns="http://www.w3.org/2000/svg">
<rect x="443.5" y="212.5" width="50" height="75" rx="25" fill="white"/>
<rect x="356" y="112.5" width="50" height="275" rx="25" fill="white"/>
<rect x="268.5" y="22.5" width="50" height="400" rx="25" fill="white"/>
<rect x="231" y="477.045" width="50" height="400" rx="25" transform="rotate(-180 231 477.045)" fill="white"/>
<rect x="143.5" y="375" width="50" height="250" rx="25" transform="rotate(-180 143.5 375)" fill="white"/>
<rect x="56" y="312.5" width="50" height="125" rx="25" transform="rotate(-180 56 312.5)" fill="white"/>
<path d="M761.24 311.984C767.043 303.28 771.821 295.173 775.576 287.664C779.501 280.155 783.256 271.451 786.84 261.552C798.957 268.549 813.037 274.011 829.08 277.936C845.123 281.861 860.056 283.824 873.88 283.824C888.045 283.824 898.029 282.629 903.832 280.24C909.635 277.68 912.536 274.949 912.536 272.048C912.536 261.637 896.664 256.432 864.92 256.432C830.104 256.432 804.845 252.848 789.144 245.68C773.443 238.341 765.592 226.565 765.592 210.352C765.592 187.312 775.149 170.331 794.264 159.408C813.379 148.485 838.211 143.024 868.76 143.024C886.509 143.024 904.685 145.328 923.288 149.936C942.061 154.373 958.957 160.517 973.976 168.368C969.027 179.632 963.821 193.371 958.36 209.584C957.336 212.997 956.483 215.557 955.8 217.264C947.096 210.267 933.955 204.464 916.376 199.856C898.797 195.077 883.267 192.688 869.784 192.688C853.571 192.688 842.648 193.797 837.016 196.016C831.384 198.064 828.568 201.136 828.568 205.232C828.568 209.328 832.408 212.656 840.088 215.216C847.939 217.605 859.203 218.8 873.88 218.8C910.061 218.8 936.344 222.981 952.728 231.344C969.112 239.536 977.304 252.165 977.304 269.232C977.304 293.125 968.6 310.363 951.192 320.944C933.784 331.355 907.416 336.56 872.088 336.56C853.144 336.56 833.859 334.512 814.232 330.416C794.605 326.149 776.941 320.005 761.24 311.984ZM1166.19 194.224L1160.3 209.072C1144.09 252.251 1127.11 293.893 1109.36 334C1100.14 354.48 1086.83 370.864 1069.42 383.152C1052.01 395.611 1030.17 401.584 1003.88 401.072C1000.64 386.907 997.911 375.813 995.692 367.792C993.644 359.941 990.913 352.005 987.5 343.984C996.887 346.203 1005.68 347.312 1013.87 347.312C1027.18 347.312 1037.76 344.496 1045.61 338.864C1039.47 320.603 1032.21 300.976 1023.85 279.984C1015.49 258.992 1003.37 230.405 987.5 194.224H1048.17C1050.22 202.757 1053.04 212.656 1056.62 223.92C1060.2 235.184 1063.79 246.021 1067.37 256.432C1068.4 259.675 1070.02 264.624 1072.24 271.28C1074.63 277.765 1076.5 283.227 1077.87 287.664L1084.52 267.44C1097.32 230.405 1104.92 206 1107.31 194.224H1166.19ZM1374.89 334C1376.26 311.643 1376.94 288.517 1376.94 264.624C1376.94 256.944 1374.98 250.971 1371.05 246.704C1367.3 242.267 1362.26 240.048 1355.95 240.048C1350.14 240.048 1345.11 242.608 1340.84 247.728C1336.75 252.848 1334.7 260.272 1334.7 270V269.744C1334.7 299.952 1335.12 321.371 1335.98 334H1278.38C1279.4 308.912 1279.91 285.787 1279.91 264.624C1279.91 257.115 1278.04 251.141 1274.28 246.704C1270.7 242.267 1266.09 240.048 1260.46 240.048C1254.48 240.048 1249.45 242.608 1245.35 247.728C1241.43 252.677 1239.12 259.504 1238.44 268.208C1238.1 281.179 1237.93 290.395 1237.93 295.856C1237.93 307.461 1238.27 320.176 1238.95 334H1177.77C1179.14 309.424 1179.82 286.213 1179.82 264.368C1179.82 242.523 1179.14 219.141 1177.77 194.224C1189.03 194.736 1197.65 194.992 1203.63 194.992C1209.94 194.992 1218.56 194.736 1229.48 194.224L1237.16 232.112C1241.09 218.288 1247.32 208.133 1255.85 201.648C1264.38 194.992 1274.2 191.664 1285.29 191.664C1298.6 191.664 1309.44 195.333 1317.8 202.672C1326.34 210.011 1331.63 219.568 1333.67 231.344C1337.6 219.227 1344.17 209.584 1353.39 202.416C1362.6 195.248 1373.1 191.664 1384.87 191.664C1400.23 191.664 1412.27 196.869 1420.97 207.28C1429.67 217.52 1434.03 231.6 1434.03 249.52V292.016C1434.03 311.301 1434.2 325.296 1434.54 334H1374.89ZM1569.36 191.664C1580.46 191.664 1590.44 194.821 1599.31 201.136C1608.19 207.451 1615.1 216.069 1620.05 226.992C1625 237.744 1627.47 249.605 1627.47 262.576C1627.47 275.376 1625 287.493 1620.05 298.928C1615.1 310.192 1608.1 319.323 1599.06 326.32C1590.18 333.147 1580.03 336.56 1568.59 336.56C1555.28 336.56 1543.85 333.829 1534.29 328.368C1524.9 322.736 1517.91 314.117 1513.3 302.512C1513.3 312.24 1513.64 327.856 1514.32 349.36C1515 370.181 1515.35 384.859 1515.35 393.392H1457.49C1458.51 361.648 1459.03 328.453 1459.03 293.808C1459.03 259.163 1458.51 225.968 1457.49 194.224H1506.64L1514.07 226.224C1518.84 214.277 1526.01 205.573 1535.57 200.112C1545.13 194.48 1556.39 191.664 1569.36 191.664ZM1541.97 290.48C1549.65 290.48 1556.05 288.091 1561.17 283.312C1566.46 278.363 1569.11 271.963 1569.11 264.112C1569.11 255.408 1566.72 248.325 1561.94 242.864C1557.16 237.403 1550.67 234.672 1542.48 234.672C1533.1 234.672 1526.01 236.976 1521.23 241.584C1516.46 246.021 1514.07 253.531 1514.07 264.112C1514.07 270.085 1515.6 275.12 1518.67 279.216C1521.75 283.141 1525.42 286.043 1529.68 287.92C1533.95 289.627 1538.04 290.48 1541.97 290.48ZM1745.33 334C1746.35 308.912 1746.87 285.787 1746.87 264.624C1746.87 257.115 1744.99 251.141 1741.23 246.704C1737.65 242.267 1733.04 240.048 1727.41 240.048C1721.44 240.048 1716.32 242.949 1712.05 248.752C1707.95 254.555 1705.91 262.491 1705.91 272.56L1705.65 272.048C1705.65 299.867 1705.99 320.517 1706.67 334H1645.49C1646.86 309.424 1647.54 276.144 1647.54 234.16C1647.54 192.176 1646.86 158.896 1645.49 134.32H1706.42L1706.67 213.168L1706.42 226.736C1710.51 214.789 1716.57 206 1724.59 200.368C1732.79 194.565 1742 191.664 1752.24 191.664C1762.48 191.664 1771.36 193.968 1778.87 198.576C1786.38 203.013 1792.01 209.072 1795.76 216.752C1799.69 224.432 1801.65 233.051 1801.65 242.608V279.472C1801.65 302.171 1802.08 320.347 1802.93 334H1745.33ZM1905.92 336.56C1876.74 336.56 1855.23 329.904 1841.41 316.592C1827.76 303.109 1820.93 285.445 1820.93 263.6C1820.93 242.267 1827.76 224.944 1841.41 211.632C1855.23 198.32 1876.74 191.664 1905.92 191.664C1925.55 191.664 1941.93 194.907 1955.07 201.392C1968.39 207.707 1978.2 216.325 1984.51 227.248C1990.83 238 1993.99 250.117 1993.99 263.6C1993.99 285.616 1986.65 303.28 1971.97 316.592C1957.46 329.904 1935.45 336.56 1905.92 336.56ZM1906.95 293.04C1918.04 293.04 1926.32 290.395 1931.78 285.104C1937.24 279.813 1939.97 272.731 1939.97 263.856C1939.97 255.493 1937.24 248.667 1931.78 243.376C1926.32 237.915 1918.04 235.184 1906.95 235.184C1895.85 235.184 1887.75 237.829 1882.63 243.12C1877.51 248.411 1874.95 255.323 1874.95 263.856C1874.95 272.731 1877.51 279.813 1882.63 285.104C1887.75 290.395 1895.85 293.04 1906.95 293.04ZM2111.83 334C2112.85 308.912 2113.37 285.787 2113.37 264.624C2113.37 257.115 2111.49 251.141 2107.73 246.704C2104.15 242.267 2099.54 240.048 2093.91 240.048C2088.28 240.048 2083.5 242.608 2079.57 247.728C2075.65 252.677 2073.34 259.504 2072.66 268.208C2072.32 281.179 2072.15 290.395 2072.15 295.856C2072.15 307.461 2072.49 320.176 2073.17 334H2011.99C2013.36 309.424 2014.04 286.213 2014.04 264.368C2014.04 242.523 2013.36 219.141 2011.99 194.224C2023.25 194.736 2031.87 194.992 2037.85 194.992C2044.16 194.992 2052.78 194.736 2063.7 194.224L2071.13 231.856C2075.05 218.203 2081.2 208.133 2089.56 201.648C2097.92 194.992 2107.65 191.664 2118.74 191.664C2128.98 191.664 2137.86 193.968 2145.37 198.576C2152.88 203.013 2158.51 209.072 2162.26 216.752C2166.19 224.432 2168.15 233.051 2168.15 242.608V279.472C2168.15 302.171 2168.58 320.347 2169.43 334H2111.83ZM2358.44 194.224L2352.55 209.072C2336.34 252.251 2319.36 293.893 2301.61 334C2292.39 354.48 2279.08 370.864 2261.67 383.152C2244.26 395.611 2222.42 401.584 2196.13 401.072C2192.89 386.907 2190.16 375.813 2187.94 367.792C2185.89 359.941 2183.16 352.005 2179.75 343.984C2189.14 346.203 2197.93 347.312 2206.12 347.312C2219.43 347.312 2230.01 344.496 2237.86 338.864C2231.72 320.603 2224.46 300.976 2216.1 279.984C2207.74 258.992 2195.62 230.405 2179.75 194.224H2240.42C2242.47 202.757 2245.29 212.656 2248.87 223.92C2252.45 235.184 2256.04 246.021 2259.62 256.432C2260.65 259.675 2262.27 264.624 2264.49 271.28C2266.88 277.765 2268.75 283.227 2270.12 287.664L2276.77 267.44C2289.57 230.405 2297.17 206 2299.56 194.224H2358.44Z" fill="white"/>
</svg>
