<svg width="1146" height="500" viewBox="0 0 1146 500" fill="none" xmlns="http://www.w3.org/2000/svg">
<g clip-path="url(#clip0_205_46)">
<path d="M161.969 461.511C149.416 461.511 137.781 459.674 127.065 456C116.655 452.326 107.317 447.121 99.0502 440.385C91.0896 433.649 84.2007 425.535 78.3833 416.044H76.5462L72.8721 456H20.9753V134.515H82.9759V257.598C90.6303 248.106 100.887 239.993 113.747 233.257C126.912 226.215 142.374 222.694 160.132 222.694C182.483 222.694 201.772 227.899 218 238.309C234.227 248.413 246.78 262.497 255.659 280.561C264.538 298.319 268.978 318.833 268.978 342.103C268.978 365.066 264.538 385.58 255.659 403.644C246.78 421.708 234.38 435.945 218.459 446.355C202.538 456.459 183.708 461.511 161.969 461.511ZM144.058 410.533C156.611 410.533 167.481 407.624 176.666 401.807C186.157 395.683 193.352 387.57 198.251 377.466C203.456 367.362 206.059 355.421 206.059 341.643C206.059 328.171 203.456 316.384 198.251 306.28C193.352 295.87 186.157 287.756 176.666 281.939C167.481 276.122 156.611 273.213 144.058 273.213C131.811 273.213 120.942 276.122 111.45 281.939C101.959 287.756 94.6106 295.87 89.4056 306.28C84.2006 316.384 81.5982 328.325 81.5982 342.103C81.5982 355.574 84.2006 367.515 89.4056 377.925C94.6106 388.029 101.959 395.989 111.45 401.807C120.942 407.624 131.811 410.533 144.058 410.533ZM411.052 461.511C387.783 461.511 367.116 456.612 349.051 446.815C331.293 437.017 317.362 423.239 307.258 405.481C297.154 387.723 292.103 367.362 292.103 344.399C292.103 320.517 297.001 299.544 306.799 281.48C316.903 263.109 330.834 248.719 348.592 238.309C366.656 227.899 387.476 222.694 411.052 222.694C434.015 222.694 454.07 227.593 471.216 237.39C488.361 247.188 501.833 260.66 511.631 277.806C521.428 294.645 526.327 313.781 526.327 335.214C526.327 338.275 526.174 341.796 525.868 345.777C525.868 349.451 525.715 353.278 525.409 357.258H336.192V319.139H463.408C462.49 304.749 457.131 293.267 447.334 284.694C437.842 276.122 425.901 271.835 411.511 271.835C400.795 271.835 390.997 274.285 382.118 279.183C373.239 283.776 366.197 290.971 360.992 300.769C355.787 310.26 353.185 322.354 353.185 337.051V350.369C353.185 362.922 355.634 373.792 360.533 382.977C365.432 391.856 372.168 398.745 380.741 403.644C389.62 408.543 399.57 410.992 410.593 410.992C421.921 410.992 431.413 408.543 439.067 403.644C446.721 398.439 452.539 391.856 456.519 383.896H519.438C515.152 398.286 507.957 411.451 497.853 423.392C487.749 435.027 475.349 444.365 460.652 451.407C445.956 458.143 429.423 461.511 411.052 461.511ZM561.088 456V228.205H623.088V456H561.088ZM592.318 199.271C580.989 199.271 571.651 196.057 564.303 189.627C557.261 182.891 553.74 174.471 553.74 164.367C553.74 154.263 557.261 145.844 564.303 139.108C571.651 132.372 580.989 129.004 592.318 129.004C603.646 129.004 612.832 132.372 619.874 139.108C626.916 145.844 630.437 154.263 630.437 164.367C630.437 174.165 626.916 182.432 619.874 189.168C612.832 195.903 603.646 199.271 592.318 199.271ZM660.321 456V407.318L776.056 278.724H661.699V228.205H845.864V276.887L728.751 405.481H848.16V456H660.321ZM987.375 461.511C964.105 461.511 943.438 456.612 925.374 446.815C907.616 437.017 893.685 423.239 883.581 405.481C873.477 387.723 868.425 367.362 868.425 344.399C868.425 320.517 873.324 299.544 883.122 281.48C893.225 263.109 907.156 248.719 924.915 238.309C942.979 227.899 963.799 222.694 987.375 222.694C1010.34 222.694 1030.39 227.593 1047.54 237.39C1064.68 247.188 1078.16 260.66 1087.95 277.806C1097.75 294.645 1102.65 313.781 1102.65 335.214C1102.65 338.275 1102.5 341.796 1102.19 345.777C1102.19 349.451 1102.04 353.278 1101.73 357.258H912.514V319.139H1039.73C1038.81 304.749 1033.45 293.267 1023.66 284.694C1014.16 276.122 1002.22 271.835 987.834 271.835C977.118 271.835 967.32 274.285 958.441 279.183C949.562 283.776 942.52 290.971 937.315 300.769C932.11 310.26 929.507 322.354 929.507 337.051V350.369C929.507 362.922 931.957 373.792 936.855 382.977C941.754 391.856 948.49 398.745 957.063 403.644C965.942 408.543 975.893 410.992 986.915 410.992C998.244 410.992 1007.74 408.543 1015.39 403.644C1023.04 398.439 1028.86 391.856 1032.84 383.896H1095.76C1091.47 398.286 1084.28 411.451 1074.18 423.392C1064.07 435.027 1051.67 444.365 1036.98 451.407C1022.28 458.143 1005.75 461.511 987.375 461.511Z" fill="white"/>
<path d="M851.518 115.378C846.466 115.378 841.989 114.536 838.085 112.852C834.258 111.168 831.158 108.872 828.785 105.963C826.488 102.978 825.149 99.6097 824.766 95.8591H840.266C840.572 97.2369 841.185 98.5381 842.103 99.7628C843.022 100.988 844.247 101.983 845.777 102.748C847.385 103.437 849.222 103.781 851.289 103.781C853.432 103.781 855.154 103.513 856.455 102.978C857.757 102.365 858.713 101.6 859.326 100.681C860.015 99.7628 860.359 98.7677 860.359 97.6961C860.359 96.2418 859.862 95.1319 858.867 94.3665C857.948 93.5245 856.57 92.7973 854.733 92.185C852.973 91.5726 850.868 90.922 848.418 90.2331C845.892 89.5442 843.328 88.817 840.726 88.0516C838.2 87.2861 835.865 86.3293 833.722 85.1812C831.579 83.9565 829.856 82.4256 828.555 80.5885C827.33 78.6749 826.718 76.3021 826.718 73.4699C826.718 70.1786 827.637 67.1933 829.474 64.5143C831.311 61.8353 833.951 59.692 837.396 58.0846C840.917 56.4772 845.089 55.6735 849.911 55.6735C856.8 55.6735 862.273 57.2426 866.33 60.3809C870.463 63.5192 872.874 67.844 873.563 73.3551H858.981C858.599 71.4415 857.604 69.9489 855.996 68.8773C854.465 67.8057 852.437 67.2699 849.911 67.2699C847.232 67.2699 845.165 67.8057 843.711 68.8773C842.333 69.8724 841.644 71.0971 841.644 72.5514C841.644 73.623 842.103 74.5416 843.022 75.307C843.94 75.9959 845.28 76.6465 847.04 77.2589C848.878 77.7947 851.059 78.407 853.585 79.0959C857.642 80.1675 861.354 81.3157 864.722 82.5404C868.09 83.7651 870.769 85.4491 872.759 87.5923C874.749 89.659 875.744 92.6059 875.744 96.4331C875.821 100.107 874.864 103.36 872.874 106.193C870.884 109.025 868.09 111.283 864.493 112.967C860.895 114.574 856.57 115.378 851.518 115.378ZM910.823 115.378C904.776 115.378 899.494 114.115 894.978 111.589C890.538 108.986 887.056 105.465 884.53 101.026C882.08 96.5097 880.856 91.343 880.856 85.5256C880.856 79.7083 882.119 74.5798 884.645 70.1403C887.17 65.6242 890.691 62.1032 895.208 59.5772C899.724 56.9747 904.929 55.6735 910.823 55.6735C918.171 55.6735 924.333 57.5871 929.308 61.4143C934.36 65.2415 937.575 70.523 938.952 77.2589H922.534C921.921 74.5033 920.505 72.3601 918.286 70.8292C916.142 69.2983 913.616 68.5329 910.708 68.5329C908.029 68.5329 905.618 69.2218 903.474 70.5995C901.408 71.9008 899.762 73.8144 898.537 76.3403C897.313 78.8663 896.7 81.9281 896.7 85.5256C896.7 88.1281 897.045 90.4627 897.734 92.5294C898.422 94.5961 899.379 96.3566 900.604 97.8109C901.829 99.2653 903.283 100.375 904.967 101.141C906.727 101.83 908.641 102.174 910.708 102.174C912.698 102.174 914.497 101.868 916.104 101.255C917.712 100.567 919.089 99.6097 920.237 98.385C921.386 97.0838 922.151 95.5529 922.534 93.7924H938.952C937.575 100.375 934.36 105.618 929.308 109.522C924.333 113.426 918.171 115.378 910.823 115.378ZM946.377 114V57.0513H959.581L960.959 69.5662H961.418C963.102 65.5094 964.939 62.5241 966.929 60.6105C968.919 58.6204 971.177 57.3192 973.703 56.7068C976.306 56.0179 979.214 55.6735 982.429 55.6735V72.0922H978.181C975.578 72.0922 973.244 72.3983 971.177 73.0107C969.187 73.5465 967.503 74.465 966.125 75.7663C964.748 76.991 963.676 78.6367 962.91 80.7034C962.222 82.77 961.877 85.2577 961.877 88.1664V114H946.377ZM989.476 114V57.0513H1004.98V114H989.476ZM997.283 49.8178C994.451 49.8178 992.117 49.0141 990.28 47.4067C988.519 45.7227 987.639 43.6178 987.639 41.0918C987.639 38.5659 988.519 36.4609 990.28 34.7769C992.117 33.093 994.451 32.251 997.283 32.251C1000.12 32.251 1002.41 33.093 1004.17 34.7769C1005.93 36.4609 1006.81 38.5659 1006.81 41.0918C1006.81 43.5412 1005.93 45.6079 1004.17 47.2919C1002.41 48.9759 1000.12 49.8178 997.283 49.8178ZM1016.58 136.963V57.0513H1029.55L1030.47 67.0402H1030.93C1032.39 64.6674 1034.11 62.639 1036.1 60.955C1038.17 59.271 1040.5 57.9698 1043.1 57.0513C1045.78 56.1327 1048.69 55.6735 1051.83 55.6735C1057.26 55.6735 1061.97 56.9747 1065.95 59.5772C1069.93 62.1032 1073.03 65.6242 1075.25 70.1403C1077.47 74.6564 1078.58 79.7848 1078.58 85.5256C1078.58 91.2664 1077.47 96.3949 1075.25 100.911C1073.03 105.427 1069.89 108.986 1065.84 111.589C1061.78 114.115 1056.96 115.378 1051.37 115.378C1046.93 115.378 1043.06 114.536 1039.77 112.852C1036.56 111.091 1033.99 109.025 1032.08 106.652V136.963H1016.58ZM1047.35 102.748C1050.49 102.748 1053.21 102.021 1055.5 100.567C1057.88 99.1122 1059.67 97.122 1060.9 94.5961C1062.2 91.9936 1062.85 89.0084 1062.85 85.6404C1062.85 82.196 1062.2 79.2107 1060.9 76.6848C1059.67 74.0823 1057.88 72.0539 1055.5 70.5995C1053.21 69.1452 1050.49 68.418 1047.35 68.418C1044.29 68.418 1041.57 69.1452 1039.2 70.5995C1036.83 72.0539 1034.99 74.0823 1033.69 76.6848C1032.39 79.2107 1031.74 82.196 1031.74 85.6404C1031.74 89.0084 1032.39 91.9936 1033.69 94.5961C1034.99 97.122 1036.83 99.1122 1039.2 100.567C1041.57 102.021 1044.29 102.748 1047.35 102.748ZM1109.79 114C1105.73 114 1102.17 113.388 1099.11 112.163C1096.13 110.862 1093.79 108.757 1092.11 105.848C1090.42 102.863 1089.58 98.806 1089.58 93.6776V69.4514H1079.82V57.0513H1089.58L1091.31 41.5511H1105.08V57.0513H1120.24V69.4514H1105.08V93.9072C1105.08 96.6628 1105.66 98.5764 1106.81 99.648C1107.95 100.643 1109.91 101.141 1112.66 101.141H1119.89V114H1109.79Z" fill="white"/>
</g>
<defs>
<clipPath id="clip0_205_46">
<rect width="1146" height="500" fill="white"/>
</clipPath>
</defs>
</svg>
