<svg width="887" height="500" viewBox="0 0 887 500" fill="none" xmlns="http://www.w3.org/2000/svg">
<g clip-path="url(#clip0_205_54)">
<path d="M27.8019 487.869V151.017H87.9352V186.671C93.9662 177.092 101.062 169.287 109.221 163.256C117.381 157.225 126.428 152.791 136.361 149.953C146.649 147.114 157.47 145.695 168.822 145.695C183.368 145.695 197.204 148.534 210.33 154.21C223.457 159.531 234.987 167.691 244.92 178.689C255.208 189.332 263.191 202.813 268.867 219.132C274.898 235.097 277.914 253.9 277.914 275.541C277.914 297.536 274.721 316.694 268.335 333.013C262.304 349.332 254.144 362.814 243.856 373.457C233.568 384.1 221.683 392.082 208.202 397.404C195.075 402.725 181.417 405.386 167.226 405.386C156.583 405.386 146.295 404.322 136.361 402.193C126.428 400.064 117.381 396.871 109.221 392.614C101.416 388.002 94.8532 382.681 89.5316 376.65V487.869H27.8019ZM151.261 357.492C160.485 357.492 169 356.073 176.805 353.235C184.61 350.397 191.528 345.785 197.559 339.399C203.59 333.013 208.202 324.499 211.395 313.856C214.942 302.858 216.716 289.377 216.716 273.412C216.716 256.738 214.233 242.547 209.266 230.84C204.299 219.132 197.204 210.086 187.98 203.7C178.756 197.314 167.935 193.944 155.519 193.589C145.585 193.589 136.538 195.186 128.379 198.378C120.219 201.217 113.124 206.183 107.093 213.279C101.416 220.019 96.9818 228.889 93.7889 239.886C90.9507 250.884 89.5316 264.011 89.5316 279.266C89.5316 290.263 90.4186 300.02 92.1924 308.534C94.321 316.694 97.1592 323.966 100.707 330.352C104.255 336.383 108.334 341.528 112.946 345.785C117.913 349.687 123.589 352.703 129.975 354.831C136.716 356.605 143.811 357.492 151.261 357.492ZM325.171 42.4578H385.837H391.158V47.2471C389.03 49.3757 387.611 51.6817 386.901 54.1651C386.546 56.6485 386.369 60.9057 386.369 66.9368V185.075C393.109 176.205 400.914 168.933 409.784 163.256C418.653 157.225 428.232 152.791 438.52 149.953C448.808 147.114 459.274 145.695 469.917 145.695C487.655 145.695 503.088 149.42 516.214 156.871C529.341 163.966 539.451 175.319 546.547 190.928C553.997 206.538 557.722 226.76 557.722 251.594V399H496.524V252.126C496.524 237.58 494.751 226.05 491.203 217.536C487.655 208.667 482.688 202.458 476.303 198.911C469.917 195.008 462.467 193.057 453.952 193.057C447.212 193.057 440.471 193.944 433.73 195.718C427.345 197.492 421.314 200.152 415.637 203.7C409.961 207.248 404.817 211.86 400.205 217.536C395.948 222.857 392.577 228.889 390.094 235.629C387.611 242.37 386.369 249.82 386.369 257.98V399H325.171V42.4578ZM731.1 404.322C706.621 404.322 684.625 399 665.113 388.357C645.601 377.359 630.168 362.104 618.816 342.592C607.818 323.08 602.319 300.552 602.319 275.008C602.319 250.529 607.818 228.534 618.816 209.022C630.168 189.509 645.601 174.077 665.113 162.724C684.625 151.372 706.621 145.695 731.1 145.695C755.934 145.695 777.929 151.372 797.087 162.724C816.599 174.077 832.031 189.509 843.384 209.022C854.737 228.534 860.413 250.529 860.413 275.008C860.413 300.552 854.737 323.08 843.384 342.592C832.031 362.104 816.599 377.359 797.087 388.357C777.929 399 755.934 404.322 731.1 404.322ZM731.1 355.363C744.581 355.363 756.288 351.993 766.222 345.253C776.155 338.512 783.96 329.111 789.637 317.048C795.668 304.986 798.683 290.973 798.683 275.008C798.683 258.334 795.668 244.144 789.637 232.436C783.96 220.374 776.155 211.15 766.222 204.764C756.288 198.024 744.581 194.653 731.1 194.653C718.328 194.653 706.798 198.024 696.51 204.764C686.576 211.15 678.594 220.374 672.563 232.436C666.887 244.144 664.049 258.334 664.049 275.008C664.049 290.973 666.887 304.986 672.563 317.048C678.239 329.111 686.222 338.512 696.51 345.253C706.798 351.993 718.328 355.363 731.1 355.363ZM852.963 113.234C852.963 135.939 850.657 153.678 846.045 166.449C841.788 179.221 835.047 188.268 825.823 193.589C816.954 198.911 805.779 201.571 792.297 201.571V163.789C797.264 163.789 800.812 159.886 802.94 152.081C805.424 143.922 806.665 130.972 806.665 113.234H852.963ZM794.958 58.4223C794.958 65.8725 793.007 72.2583 789.104 77.5798C785.202 82.5466 780.767 87.1586 775.801 91.4158C770.834 95.3182 766.399 99.3981 762.497 103.655C758.594 107.558 756.643 112.347 756.643 118.023V122.281H717.264V107.38C717.264 102.059 719.038 97.2695 722.585 93.0122C726.133 88.4003 730.213 84.3204 734.825 80.7727C739.792 77.225 744.049 73.8547 747.597 70.6618C751.499 67.1141 753.45 63.7439 753.45 60.5509C753.45 55.9389 751.499 52.3913 747.597 49.9079C744.049 47.0697 739.614 45.6507 734.293 45.6507C727.197 45.6507 720.812 47.0697 715.135 49.9079C709.814 52.746 705.379 57.8902 701.831 65.3403L678.949 36.6041C686.399 28.0896 695.268 21.8812 705.556 17.9787C715.845 13.7215 726.488 11.7703 737.486 12.125C748.838 12.125 758.772 14.0763 767.286 17.9787C776.155 21.8812 782.896 27.3801 787.508 34.4754C792.475 41.2161 794.958 49.1984 794.958 58.4223Z" fill="white"/>
</g>
<defs>
<clipPath id="clip0_205_54">
<rect width="887" height="500" fill="white"/>
</clipPath>
</defs>
</svg>
