<svg width="1680" height="500" viewBox="0 0 1680 500" fill="none" xmlns="http://www.w3.org/2000/svg">
<g clip-path="url(#clip0_205_30)">
<path d="M656.182 343V156.818H729.636C743.758 156.818 755.788 159.515 765.727 164.909C775.667 170.242 783.242 177.667 788.455 187.182C793.727 196.636 796.364 207.545 796.364 219.909C796.364 232.273 793.697 243.182 788.364 252.636C783.03 262.091 775.303 269.455 765.182 274.727C755.121 280 742.939 282.636 728.636 282.636H681.818V251.091H722.273C729.848 251.091 736.091 249.788 741 247.182C745.97 244.515 749.667 240.848 752.091 236.182C754.576 231.455 755.818 226.03 755.818 219.909C755.818 213.727 754.576 208.333 752.091 203.727C749.667 199.061 745.97 195.455 741 192.909C736.03 190.303 729.727 189 722.091 189H695.545V343H656.182ZM859.932 262.273V343H821.205V156.818H858.841V228H860.477C863.629 219.758 868.72 213.303 875.75 208.636C882.78 203.909 891.598 201.545 902.205 201.545C911.902 201.545 920.356 203.667 927.568 207.909C934.841 212.091 940.477 218.121 944.477 226C948.538 233.818 950.538 243.182 950.477 254.091V343H911.75V261C911.811 252.394 909.629 245.697 905.205 240.909C900.841 236.121 894.72 233.727 886.841 233.727C881.568 233.727 876.902 234.848 872.841 237.091C868.841 239.333 865.689 242.606 863.386 246.909C861.144 251.152 859.992 256.273 859.932 262.273ZM980.955 343V203.364H1018.5V227.727H1019.95C1022.5 219.061 1026.77 212.515 1032.77 208.091C1038.77 203.606 1045.68 201.364 1053.5 201.364C1055.44 201.364 1057.53 201.485 1059.77 201.727C1062.02 201.97 1063.98 202.303 1065.68 202.727V237.091C1063.86 236.545 1061.35 236.061 1058.14 235.636C1054.92 235.212 1051.98 235 1049.32 235C1043.62 235 1038.53 236.242 1034.05 238.727C1029.62 241.152 1026.11 244.545 1023.5 248.909C1020.95 253.273 1019.68 258.303 1019.68 264V343H980.955ZM1121.52 345.636C1112.61 345.636 1104.67 344.091 1097.7 341C1090.73 337.848 1085.22 333.212 1081.16 327.091C1077.16 320.909 1075.16 313.212 1075.16 304C1075.16 296.242 1076.58 289.727 1079.43 284.455C1082.28 279.182 1086.16 274.939 1091.07 271.727C1095.98 268.515 1101.55 266.091 1107.8 264.455C1114.1 262.818 1120.7 261.667 1127.61 261C1135.73 260.152 1142.28 259.364 1147.25 258.636C1152.22 257.848 1155.83 256.697 1158.07 255.182C1160.31 253.667 1161.43 251.424 1161.43 248.455V247.909C1161.43 242.152 1159.61 237.697 1155.98 234.545C1152.4 231.394 1147.31 229.818 1140.7 229.818C1133.73 229.818 1128.19 231.364 1124.07 234.455C1119.95 237.485 1117.22 241.303 1115.89 245.909L1080.07 243C1081.89 234.515 1085.46 227.182 1090.8 221C1096.13 214.758 1103.01 209.97 1111.43 206.636C1119.92 203.242 1129.73 201.545 1140.89 201.545C1148.64 201.545 1156.07 202.455 1163.16 204.273C1170.31 206.091 1176.64 208.909 1182.16 212.727C1187.73 216.545 1192.13 221.455 1195.34 227.455C1198.55 233.394 1200.16 240.515 1200.16 248.818V343H1163.43V323.636H1162.34C1160.1 328 1157.1 331.848 1153.34 335.182C1149.58 338.455 1145.07 341.03 1139.8 342.909C1134.52 344.727 1128.43 345.636 1121.52 345.636ZM1132.61 318.909C1138.31 318.909 1143.34 317.788 1147.7 315.545C1152.07 313.242 1155.49 310.152 1157.98 306.273C1160.46 302.394 1161.7 298 1161.7 293.091V278.273C1160.49 279.061 1158.83 279.788 1156.7 280.455C1154.64 281.061 1152.31 281.636 1149.7 282.182C1147.1 282.667 1144.49 283.121 1141.89 283.545C1139.28 283.909 1136.92 284.242 1134.8 284.545C1130.25 285.212 1126.28 286.273 1122.89 287.727C1119.49 289.182 1116.86 291.152 1114.98 293.636C1113.1 296.061 1112.16 299.091 1112.16 302.727C1112.16 308 1114.07 312.03 1117.89 314.818C1121.77 317.545 1126.67 318.909 1132.61 318.909ZM1346.39 243.182L1310.93 245.364C1310.33 242.333 1309.02 239.606 1307.02 237.182C1305.02 234.697 1302.39 232.727 1299.11 231.273C1295.9 229.758 1292.05 229 1287.57 229C1281.57 229 1276.51 230.273 1272.39 232.818C1268.27 235.303 1266.2 238.636 1266.2 242.818C1266.2 246.152 1267.54 248.97 1270.2 251.273C1272.87 253.576 1277.45 255.424 1283.93 256.818L1309.2 261.909C1322.78 264.697 1332.9 269.182 1339.57 275.364C1346.23 281.545 1349.57 289.667 1349.57 299.727C1349.57 308.879 1346.87 316.909 1341.48 323.818C1336.14 330.727 1328.81 336.121 1319.48 340C1310.2 343.818 1299.51 345.727 1287.39 345.727C1268.9 345.727 1254.17 341.879 1243.2 334.182C1232.3 326.424 1225.9 315.879 1224.02 302.545L1262.11 300.545C1263.27 306.182 1266.05 310.485 1270.48 313.455C1274.9 316.364 1280.57 317.818 1287.48 317.818C1294.27 317.818 1299.72 316.515 1303.84 313.909C1308.02 311.242 1310.14 307.818 1310.2 303.636C1310.14 300.121 1308.66 297.242 1305.75 295C1302.84 292.697 1298.36 290.939 1292.3 289.727L1268.11 284.909C1254.48 282.182 1244.33 277.455 1237.66 270.727C1231.05 264 1227.75 255.424 1227.75 245C1227.75 236.03 1230.17 228.303 1235.02 221.818C1239.93 215.333 1246.81 210.333 1255.66 206.818C1264.57 203.303 1274.99 201.545 1286.93 201.545C1304.57 201.545 1318.45 205.273 1328.57 212.727C1338.75 220.182 1344.69 230.333 1346.39 243.182ZM1437.59 345.727C1423.23 345.727 1410.86 342.818 1400.5 337C1390.2 331.121 1382.26 322.818 1376.68 312.091C1371.11 301.303 1368.32 288.545 1368.32 273.818C1368.32 259.455 1371.11 246.848 1376.68 236C1382.26 225.152 1390.11 216.697 1400.23 210.636C1410.41 204.576 1422.35 201.545 1436.05 201.545C1445.26 201.545 1453.83 203.03 1461.77 206C1469.77 208.909 1476.74 213.303 1482.68 219.182C1488.68 225.061 1493.35 232.455 1496.68 241.364C1500.02 250.212 1501.68 260.576 1501.68 272.455V283.091H1383.77V259.091H1465.23C1465.23 253.515 1464.02 248.576 1461.59 244.273C1459.17 239.97 1455.8 236.606 1451.5 234.182C1447.26 231.697 1442.32 230.455 1436.68 230.455C1430.8 230.455 1425.59 231.818 1421.05 234.545C1416.56 237.212 1413.05 240.818 1410.5 245.364C1407.95 249.848 1406.65 254.848 1406.59 260.364V283.182C1406.59 290.091 1407.86 296.061 1410.41 301.091C1413.02 306.121 1416.68 310 1421.41 312.727C1426.14 315.455 1431.74 316.818 1438.23 316.818C1442.53 316.818 1446.47 316.212 1450.05 315C1453.62 313.788 1456.68 311.97 1459.23 309.545C1461.77 307.121 1463.71 304.152 1465.05 300.636L1500.86 303C1499.05 311.606 1495.32 319.121 1489.68 325.545C1484.11 331.909 1476.89 336.879 1468.05 340.455C1459.26 343.97 1449.11 345.727 1437.59 345.727ZM1547.11 395.364C1542.2 395.364 1537.6 394.97 1533.3 394.182C1529.05 393.455 1525.54 392.515 1522.75 391.364L1531.48 362.455C1536.02 363.848 1540.11 364.606 1543.75 364.727C1547.45 364.848 1550.63 364 1553.3 362.182C1556.02 360.364 1558.23 357.273 1559.93 352.909L1562.2 347L1512.11 203.364H1552.84L1581.75 305.909H1583.2L1612.39 203.364H1653.39L1599.11 358.091C1596.51 365.606 1592.96 372.152 1588.48 377.727C1584.05 383.364 1578.45 387.697 1571.66 390.727C1564.87 393.818 1556.69 395.364 1547.11 395.364Z" fill="white"/>
<path d="M315.241 96.6219C311.936 100.918 305.658 108.848 302.684 113.474C287.153 139.249 255.761 181.215 223.048 204.346L188.682 176.919C215.447 160.727 241.222 131.649 249.813 115.457C229.656 115.457 98.141 115.457 77.3232 115.457C63.7751 115.457 52.5401 116.118 37.0094 117.77V71.5084C49.8966 73.4911 63.7751 75.1433 77.3232 75.1433C98.141 75.1433 238.248 75.1433 255.431 75.1433C264.683 75.1433 282.857 73.8215 289.136 72.1693L315.241 96.6219ZM180.751 140.901C180.751 222.85 178.769 290.26 88.8886 338.835L50.227 307.443C61.1316 303.808 73.0274 298.191 85.2538 288.939C126.889 259.86 134.82 225.163 134.82 170.971C134.82 160.397 134.489 151.806 132.837 140.901H180.751Z" fill="#FAFAFA"/>
<path d="M283.488 423.857C271.989 423.857 261.741 421.862 252.744 417.873C243.748 413.805 236.629 407.82 231.388 399.919C226.224 391.939 223.643 382.004 223.643 370.113C223.643 360.1 225.481 351.69 229.158 344.885C232.835 338.079 237.841 332.603 244.178 328.456C250.515 324.31 257.712 321.181 265.769 319.069C273.905 316.957 282.432 315.47 291.35 314.61C301.833 313.515 310.282 312.498 316.697 311.559C323.111 310.542 327.766 309.055 330.661 307.1C333.555 305.144 335.002 302.25 335.002 298.416V297.712C335.002 290.28 332.655 284.531 327.962 280.463C323.346 276.395 316.775 274.361 308.248 274.361C299.251 274.361 292.094 276.356 286.774 280.345C281.454 284.257 277.934 289.185 276.213 295.131L229.979 291.376C232.326 280.424 236.942 270.958 243.826 262.978C250.71 254.921 259.589 248.741 270.463 244.438C281.415 240.057 294.088 237.867 308.483 237.867C318.496 237.867 328.079 239.04 337.232 241.387C346.463 243.734 354.638 247.372 361.757 252.3C368.954 257.229 374.625 263.565 378.772 271.31C382.918 278.976 384.991 288.168 384.991 298.886V420.454H337.584V395.46H336.176C333.281 401.092 329.409 406.06 324.559 410.363C319.708 414.587 313.88 417.912 307.074 420.337C300.268 422.684 292.406 423.857 283.488 423.857ZM297.804 389.358C305.158 389.358 311.651 387.911 317.283 385.016C322.916 382.043 327.336 378.054 330.543 373.047C333.751 368.04 335.354 362.369 335.354 356.032V336.905C333.79 337.922 331.638 338.861 328.9 339.721C326.241 340.504 323.229 341.247 319.865 341.951C316.501 342.577 313.137 343.163 309.773 343.711C306.409 344.18 303.359 344.611 300.621 345.002C294.753 345.862 289.629 347.231 285.248 349.109C280.868 350.986 277.465 353.529 275.04 356.736C272.614 359.865 271.402 363.777 271.402 368.471C271.402 375.277 273.866 380.479 278.795 384.077C283.801 387.598 290.138 389.358 297.804 389.358Z" fill="#FAFAFA"/>
</g>
<defs>
<clipPath id="clip0_205_30">
<rect width="1680" height="500" fill="white"/>
</clipPath>
</defs>
</svg>
